<svg width="144" height="73" viewBox="0 0 144 73" fill="none" xmlns="http://www.w3.org/2000/svg">
<path d="M2.19167 38.8548C58.0194 6.67957 111.466 -0.982301 140.425 38.8548" stroke="black" stroke-width="6"/>
<path d="M72.5 34.1452C72.5 43.201 68.7335 51.886 62.0291 58.2894C55.3246 64.6929 46.2315 68.2903 36.75 68.2903C27.2685 68.2903 18.1754 64.6929 11.4709 58.2894C4.76651 51.886 1 43.201 1 34.1452H9.64621C9.64621 41.0108 12.5018 47.5953 17.5847 52.4501C22.6677 57.3049 29.5616 60.0322 36.75 60.0322C43.9384 60.0322 50.8323 57.3049 55.9153 52.4501C60.9982 47.5953 63.8538 41.0108 63.8538 34.1452H72.5Z" fill="black"/>
<path d="M144 36.5C144 41.2932 142.967 46.0396 140.961 50.4679C138.955 54.8963 136.014 58.9201 132.307 62.3094C128.6 65.6987 124.2 68.3873 119.356 70.2216C114.513 72.0559 109.322 73 104.079 73C98.8367 73 93.6455 72.0559 88.8021 70.2216C83.9587 68.3873 79.5579 65.6987 75.8509 62.3094C72.1439 58.9201 69.2033 54.8963 67.1971 50.4679C65.1909 46.0396 64.1583 41.2932 64.1583 36.5H72.6896C72.6896 40.2689 73.5015 44.0009 75.079 47.4829C76.6565 50.9649 78.9686 54.1288 81.8834 56.7938C84.7982 59.4588 88.2586 61.5728 92.0669 63.0151C95.8753 64.4574 99.957 65.1997 104.079 65.1997C108.201 65.1997 112.283 64.4574 116.091 63.0151C119.9 61.5728 123.36 59.4588 126.275 56.7938C129.19 54.1288 131.502 50.9649 133.079 47.4829C134.657 44.0009 135.469 40.2689 135.469 36.5H144Z" fill="black"/>
</svg>
